# 3ds Max Wavefront OBJ Exporter v0.97b - (c)2007 guruware
# File Created: 30.01.2016 14:21:47

#
# object Plane002
#

v  -0.1630 0.7249 -0.2320
v  -0.0019 0.8378 -0.0947
v  -0.2364 -0.0018 -0.0788
v  0.1972 0.6836 -0.1201
v  -0.2719 0.5738 -0.0762
v  -0.1408 0.4142 -0.4182
v  0.2194 0.3729 -0.3062
v  0.0263 0.6381 -0.3038
v  -0.0242 0.6999 0.2130
v  -0.2364 0.2955 -0.0707
v  0.0007 -0.0018 -0.0150
v  0.0007 0.5928 0.0429
v  0.0007 0.2955 -0.0069
v  -0.1519 0.5695 -0.3251
v  0.2083 0.5282 -0.2132
v  0.1694 0.6838 -0.1793
v  -0.2570 0.6543 0.1957
v  -0.2064 0.5925 -0.3211
v  0.0171 0.7043 -0.1760
v  0.0010 0.7143 0.1358
v  0.0393 0.3935 -0.3622
v  0.3435 0.4062 -0.0335
v  0.0010 0.6690 -0.0454
v  -0.0039 0.4963 -0.1852
v  0.0695 0.4715 0.0049
v  -0.2058 0.4835 -0.0435
v  -0.2364 -0.0018 -0.0788
v  0.0007 -0.0018 -0.0150
v  0.0007 0.2955 -0.0069
v  -0.2364 0.2955 -0.0707
v  0.0007 0.5928 0.0429
v  -0.2719 0.5738 -0.0762
v  -0.1630 0.7178 -0.2346
v  -0.0039 0.4892 -0.1878
v  -0.1519 0.5624 -0.3277
v  0.3390 0.5283 -0.2647
v  0.0662 0.4686 0.0034
v  0.3402 0.4034 -0.0349
v  0.0277 0.6307 -0.3028
v  -0.2044 0.4761 -0.0424
v  0.0024 0.6615 -0.0444
v  0.2083 0.5211 -0.2158
v  0.2194 0.3657 -0.3088
v  0.1661 0.6809 -0.1808
v  -0.0052 0.8349 -0.0961
v  -0.2051 0.5851 -0.3201
v  -0.4385 0.5432 -0.3379
v  0.0171 0.6971 -0.1786
v  0.1972 0.6765 -0.1227
v  0.3447 0.2813 0.1963
v  -0.0229 0.6924 0.2140
v  0.0393 0.3864 -0.3648
v  -0.1408 0.4070 -0.4208
v  -0.0023 0.7115 0.1343
v  0.0021 0.5894 0.3656
v  -0.4638 0.5741 -0.0795
v  -0.4890 0.6050 0.1789
v  0.1734 0.4354 0.2809
v  -0.2556 0.6469 0.1967
v  0.0088 -0.0073 -0.2217
v  -0.0333 -0.0073 0.0001
v  -0.0734 0.2638 0.0001
v  -0.0313 0.2638 -0.2217
v  -0.0734 0.5348 0.0001
v  0.0132 0.5175 -0.2570
v  0.0088 -0.0073 -0.2217
v  -0.0313 0.2638 -0.2217
v  -0.0734 0.2638 0.0001
v  -0.0333 -0.0073 0.0001
v  -0.0734 0.5348 0.0001
v  0.0132 0.5175 -0.2570
v  0.3390 0.5283 -0.2647
v  0.2372 0.4441 -0.0372
v  0.2372 0.2955 -0.0870
v  0.1413 -0.0018 -0.0915
v  0.2372 0.4441 -0.0372
v  0.2372 0.2955 -0.0870
v  0.1413 -0.0018 -0.0915
v  0.0182 0.3993 0.2085
v  0.0182 0.2638 0.2085
v  0.0272 -0.0073 0.1481
v  0.0182 0.2638 0.2085
v  0.0182 0.3993 0.2085
v  0.0272 -0.0073 0.1481
v  0.0935 0.2700 -0.0639
v  -0.0255 0.0547 0.0652
v  0.1339 0.1796 0.0966
v  -0.0782 0.2342 -0.0408
v  -0.2498 0.1969 -0.0186
v  0.1747 0.0864 0.2553
v  -0.2091 0.1051 0.1410
v  -0.1683 0.0119 0.2997
v  0.0032 0.0491 0.2775
v  0.0935 0.2700 -0.0639
v  0.1343 0.1768 0.0948
v  -0.0251 0.0518 0.0635
v  -0.0778 0.2313 -0.0425
v  -0.2494 0.1941 -0.0203
v  -0.2087 0.1023 0.1393
v  -0.0907 0.2257 0.0077
v  0.0658 0.0572 -0.1561
v  -0.1146 0.1763 -0.1652
v  0.2606 0.1373 -0.2059
v  0.2367 0.0878 -0.3789
v  0.0969 0.2062 -0.0126
v  0.2845 0.1867 -0.0330
v  0.0491 0.1074 -0.3586
v  -0.1385 0.1269 -0.3382
v  -0.0907 0.2186 0.0051
v  -0.1146 0.1691 -0.1678
v  0.0658 0.0500 -0.1587
v  0.2606 0.1301 -0.2085
v  0.2367 0.0807 -0.3815
v  0.0969 0.1991 -0.0152
v  0.2845 0.1795 -0.0356
v  0.0491 0.1002 -0.3612
v  -0.1385 0.1197 -0.3408
v  -0.1684 0.0855 -0.3477
v  -0.2092 0.0706 -0.0926
v  -0.0919 0.1630 -0.2077
v  -0.3088 0.0807 -0.2685
v  -0.4486 0.0735 -0.1882
v  -0.0155 0.2405 -0.0676
v  -0.3722 0.1510 -0.0481
v  -0.2957 0.2285 0.0919
v  -0.1559 0.2356 0.0117
v  -0.1671 0.0809 -0.3458
v  -0.0907 0.1583 -0.2058
v  -0.2079 0.0660 -0.0907
v  -0.3076 0.0760 -0.2666
v  -0.0143 0.2358 -0.0657
v  -0.1547 0.2310 0.0136
# 132 vertices

vn 0.5515 0.2189 -0.8050
vn 0.3084 0.5050 -0.8062
vn 0.7271 0.3903 -0.5648
vn 0.1182 -0.0271 0.9926
vn 0.0095 -0.1099 0.9939
vn -0.2599 -0.0200 0.9654
vn -0.2599 -0.0264 0.9653
vn 0.4900 0.6134 0.6194
vn 0.7168 0.6171 0.3247
vn 0.2658 0.8511 0.4527
vn -0.4509 0.8841 0.1228
vn -0.1869 0.9731 -0.1346
vn -0.6606 0.7351 -0.1525
vn 0.4127 -0.0636 0.9087
vn 0.3134 -0.2171 0.9245
vn 0.0095 -0.1099 0.9939
vn 0.1182 -0.0271 0.9926
vn -0.3331 -0.0924 0.9384
vn -0.2599 -0.0200 0.9654
vn 0.0095 -0.1099 0.9939
vn -0.1449 -0.1635 0.9758
vn -0.1864 0.4951 -0.8486
vn 0.0218 0.7199 -0.6937
vn 0.3084 0.5050 -0.8062
vn 0.6359 0.3128 0.7056
vn 0.8496 0.2859 0.4433
vn 0.7168 0.6171 0.3247
vn -0.2119 0.9096 0.3573
vn -0.9970 0.0775 -0.0093
vn -0.1869 0.9731 -0.1346
vn 0.2979 0.0119 -0.9545
vn 0.0536 0.2760 -0.9597
vn 0.3084 0.5050 -0.8062
vn 0.7168 0.6171 0.3247
vn 0.1309 -0.2338 0.9634
vn 0.2658 0.8511 0.4527
vn -0.1869 0.9731 -0.1346
vn -0.3988 0.8204 -0.4097
vn -0.6606 0.7351 -0.1525
vn 0.2370 0.8641 -0.4439
vn 0.5197 0.6628 -0.5390
vn 0.3084 0.5050 -0.8062
vn 0.9705 0.2156 0.1078
vn 0.2623 -0.3521 0.8985
vn 0.7168 0.6171 0.3247
vn -0.9315 0.3392 -0.1317
vn -0.9783 0.0547 -0.1997
vn -0.1869 0.9731 -0.1346
vn 0.5515 0.2189 -0.8050
vn 0.2979 0.0119 -0.9545
vn 0.3084 0.5050 -0.8062
vn 0.4900 0.6134 0.6194
vn 0.6359 0.3128 0.7056
vn 0.7168 0.6171 0.3247
vn -0.4509 0.8841 0.1228
vn -0.2119 0.9096 0.3573
vn -0.1869 0.9731 -0.1346
vn 0.0218 0.7199 -0.6937
vn 0.2370 0.8641 -0.4439
vn 0.3084 0.5050 -0.8062
vn 0.8496 0.2859 0.4433
vn 0.9705 0.2156 0.1078
vn 0.7168 0.6171 0.3247
vn -0.9970 0.0775 -0.0093
vn -0.9315 0.3392 -0.1317
vn -0.1869 0.9731 -0.1346
vn 0.0536 0.2760 -0.9597
vn -0.1864 0.4951 -0.8486
vn 0.3084 0.5050 -0.8062
vn 0.7168 0.6171 0.3247
vn 0.3541 -0.1162 0.9280
vn 0.1309 -0.2338 0.9634
vn -0.1869 0.9731 -0.1346
vn -0.1189 0.7959 -0.5936
vn -0.3988 0.8204 -0.4097
vn 0.5197 0.6628 -0.5390
vn 0.7271 0.3903 -0.5648
vn 0.3084 0.5050 -0.8062
vn 0.2623 -0.3521 0.8985
vn 0.3541 -0.1162 0.9280
vn 0.7168 0.6171 0.3247
vn -0.9783 0.0547 -0.1997
vn -0.1189 0.7959 -0.5936
vn -0.1869 0.9731 -0.1346
vn -0.1182 0.0271 -0.9926
vn 0.2599 0.0264 -0.9653
vn 0.2599 0.0200 -0.9654
vn -0.0095 0.1099 -0.9939
vn -0.0095 0.1099 -0.9939
vn -0.3134 0.2171 -0.9245
vn -0.4127 0.0636 -0.9087
vn -0.1182 0.0271 -0.9926
vn 0.3331 0.0924 -0.9384
vn 0.1449 0.1635 -0.9758
vn -0.0095 0.1099 -0.9939
vn 0.2599 0.0200 -0.9654
vn -0.5515 -0.2189 0.8050
vn -0.7271 -0.3903 0.5648
vn -0.3084 -0.5050 0.8062
vn -0.4816 -0.6127 -0.6266
vn -0.2658 -0.8511 -0.4527
vn -0.7154 -0.6207 -0.3208
vn 0.4509 -0.8841 -0.1228
vn 0.6606 -0.7351 0.1525
vn 0.1749 -0.9755 0.1337
vn 0.1864 -0.4951 0.8486
vn -0.3084 -0.5050 0.8062
vn -0.0218 -0.7199 0.6937
vn -0.6301 -0.3179 -0.7084
vn -0.7154 -0.6207 -0.3208
vn -0.8496 -0.2859 -0.4433
vn 0.1982 -0.9123 -0.3584
vn 0.1749 -0.9755 0.1337
vn -0.9970 0.0775 -0.0093
vn -0.2979 -0.0119 0.9545
vn -0.3084 -0.5050 0.8062
vn -0.0536 -0.2760 0.9597
vn -0.7154 -0.6207 -0.3208
vn -0.2658 -0.8511 -0.4527
vn 0.1309 -0.2338 0.9634
vn 0.1749 -0.9755 0.1337
vn 0.6606 -0.7351 0.1525
vn 0.3988 -0.8204 0.4097
vn -0.2370 -0.8641 0.4439
vn -0.3084 -0.5050 0.8062
vn -0.5197 -0.6628 0.5390
vn -0.9704 -0.2192 -0.1011
vn -0.7154 -0.6207 -0.3208
vn 0.2623 -0.3521 0.8985
vn -0.9315 0.3392 -0.1317
vn 0.1749 -0.9755 0.1337
vn -0.9783 0.0547 -0.1997
vn -0.5515 -0.2189 0.8050
vn -0.3084 -0.5050 0.8062
vn -0.2979 -0.0119 0.9545
vn -0.4816 -0.6127 -0.6266
vn -0.7154 -0.6207 -0.3208
vn -0.6301 -0.3179 -0.7084
vn 0.4509 -0.8841 -0.1228
vn 0.1749 -0.9755 0.1337
vn 0.1982 -0.9123 -0.3584
vn -0.0218 -0.7199 0.6937
vn -0.3084 -0.5050 0.8062
vn -0.2370 -0.8641 0.4439
vn -0.8496 -0.2859 -0.4433
vn -0.7154 -0.6207 -0.3208
vn -0.9704 -0.2192 -0.1011
vn -0.9970 0.0775 -0.0093
vn 0.1749 -0.9755 0.1337
vn -0.9315 0.3392 -0.1317
vn -0.0536 -0.2760 0.9597
vn -0.3084 -0.5050 0.8062
vn 0.1864 -0.4951 0.8486
vn -0.7154 -0.6207 -0.3208
vn 0.1309 -0.2338 0.9634
vn 0.3541 -0.1162 0.9280
vn 0.1749 -0.9755 0.1337
vn 0.3988 -0.8204 0.4097
vn 0.1052 -0.7986 0.5926
vn -0.5197 -0.6628 0.5390
vn -0.3084 -0.5050 0.8062
vn -0.7271 -0.3903 0.5648
vn 0.2623 -0.3521 0.8985
vn -0.7154 -0.6207 -0.3208
vn 0.3541 -0.1162 0.9280
vn -0.9783 0.0547 -0.1997
vn 0.1749 -0.9755 0.1337
vn 0.1052 -0.7986 0.5926
vn -0.9841 -0.1457 0.1018
vn -0.9945 -0.0513 0.0916
vn -0.9825 0.0065 -0.1864
vn -0.9722 -0.1439 -0.1845
vn -0.9136 -0.1287 0.3857
vn -0.9140 -0.0560 0.4018
vn -0.9945 -0.0513 0.0916
vn -0.9841 -0.1457 0.1018
vn -0.9632 0.0641 -0.2610
vn -0.9825 0.0065 -0.1864
vn -0.9945 -0.0513 0.0916
vn -0.9996 -0.0000 -0.0273
vn 0.9841 0.1457 -0.1018
vn 0.9722 0.1439 0.1845
vn 0.9825 -0.0065 0.1864
vn 0.9945 0.0513 -0.0916
vn 0.9945 0.0513 -0.0916
vn 0.9140 0.0560 -0.4018
vn 0.9136 0.1287 -0.3857
vn 0.9841 0.1457 -0.1018
vn 0.9632 -0.0641 0.2610
vn 0.9996 0.0000 0.0273
vn 0.9945 0.0513 -0.0916
vn 0.9825 -0.0065 0.1864
vn 0.0095 -0.1099 0.9939
vn 0.3134 -0.2171 0.9245
vn 0.2658 -0.2318 0.9357
vn -0.1449 -0.1635 0.9758
vn -0.0095 0.1099 -0.9939
vn 0.1449 0.1635 -0.9758
vn -0.2658 0.2318 -0.9357
vn -0.3134 0.2171 -0.9245
vn -0.9945 -0.0513 0.0916
vn -0.9140 -0.0560 0.4018
vn -0.9155 -0.0000 0.4024
vn -0.9996 -0.0000 -0.0273
vn 0.9996 0.0000 0.0273
vn 0.9155 0.0000 -0.4024
vn 0.9140 0.0560 -0.4018
vn 0.9945 0.0513 -0.0916
vn -0.3014 0.6072 0.7352
vn -0.1157 0.8465 0.5196
vn -0.5905 0.6253 0.5101
vn 0.0050 0.5096 0.8604
vn 0.2010 0.7128 0.6720
vn -0.1157 0.8465 0.5196
vn -0.1157 0.8465 0.5196
vn 0.0853 -0.2675 0.9598
vn -0.5905 0.6253 0.5101
vn 0.3891 0.8362 0.3865
vn 0.2680 -0.2278 0.9361
vn -0.1157 0.8465 0.5196
vn -0.3014 0.6072 0.7352
vn 0.0050 0.5096 0.8604
vn -0.1157 0.8465 0.5196
vn 0.2010 0.7128 0.6720
vn 0.3891 0.8362 0.3865
vn -0.1157 0.8465 0.5196
vn -0.1157 0.8465 0.5196
vn 0.1326 -0.0191 0.9910
vn 0.0853 -0.2675 0.9598
vn 0.2680 -0.2278 0.9361
vn 0.1326 -0.0191 0.9910
vn -0.1157 0.8465 0.5196
vn 0.3072 -0.5988 -0.7397
vn 0.5905 -0.6253 -0.5101
vn 0.1186 -0.8487 -0.5154
vn 0.0030 -0.5079 -0.8614
vn 0.1186 -0.8487 -0.5154
vn -0.2010 -0.7128 -0.6720
vn 0.1186 -0.8487 -0.5154
vn 0.5905 -0.6253 -0.5101
vn 0.0853 -0.2675 0.9598
vn -0.3874 -0.8399 -0.3801
vn 0.1186 -0.8487 -0.5154
vn 0.2680 -0.2278 0.9361
vn 0.3072 -0.5988 -0.7397
vn 0.1186 -0.8487 -0.5154
vn 0.0030 -0.5079 -0.8614
vn -0.2010 -0.7128 -0.6720
vn 0.1186 -0.8487 -0.5154
vn -0.3874 -0.8399 -0.3801
vn 0.1186 -0.8487 -0.5154
vn 0.0853 -0.2675 0.9598
vn 0.1326 -0.0191 0.9910
vn 0.2680 -0.2278 0.9361
vn 0.1186 -0.8487 -0.5154
vn 0.1326 -0.0191 0.9910
vn 0.2891 0.7917 -0.5381
vn 0.0688 0.9567 -0.2829
vn 0.5361 0.7892 -0.2996
vn -0.4155 0.8881 -0.1964
vn -0.1613 0.9868 0.0123
vn 0.0688 0.9567 -0.2829
vn -0.0059 0.6943 -0.7197
vn -0.2295 0.8456 -0.4819
vn 0.0688 0.9567 -0.2829
vn 0.1252 0.9653 0.2290
vn 0.3574 0.9329 -0.0440
vn 0.0688 0.9567 -0.2829
vn 0.2891 0.7917 -0.5381
vn -0.0059 0.6943 -0.7197
vn 0.0688 0.9567 -0.2829
vn -0.1613 0.9868 0.0123
vn 0.1252 0.9653 0.2290
vn 0.0688 0.9567 -0.2829
vn -0.2295 0.8456 -0.4819
vn -0.4155 0.8881 -0.1964
vn 0.0688 0.9567 -0.2829
vn 0.3574 0.9329 -0.0440
vn 0.5361 0.7892 -0.2996
vn 0.0688 0.9567 -0.2829
vn -0.2891 -0.7917 0.5381
vn -0.5361 -0.7892 0.2996
vn -0.0688 -0.9567 0.2829
vn 0.4155 -0.8881 0.1964
vn -0.0688 -0.9567 0.2829
vn 0.1613 -0.9868 -0.0123
vn 0.0059 -0.6943 0.7197
vn -0.0688 -0.9567 0.2829
vn 0.2295 -0.8456 0.4819
vn -0.1252 -0.9653 -0.2290
vn -0.0688 -0.9567 0.2829
vn -0.3574 -0.9329 0.0440
vn -0.2891 -0.7917 0.5381
vn -0.0688 -0.9567 0.2829
vn 0.0059 -0.6943 0.7197
vn 0.1613 -0.9868 -0.0123
vn -0.0688 -0.9567 0.2829
vn -0.1252 -0.9653 -0.2290
vn 0.2295 -0.8456 0.4819
vn -0.0688 -0.9567 0.2829
vn 0.4155 -0.8881 0.1964
vn -0.3574 -0.9329 0.0440
vn -0.0688 -0.9567 0.2829
vn -0.5361 -0.7892 0.2996
vn -0.3335 0.9428 0.0017
vn -0.2437 0.8989 -0.3642
vn -0.6538 0.7543 -0.0605
vn -0.0077 0.9981 0.0615
vn -0.8567 0.2443 0.4542
vn -0.2437 0.8989 -0.3642
vn -0.2437 0.8989 -0.3642
vn -0.5656 0.7074 -0.4238
vn -0.6538 0.7543 -0.0605
vn -0.8684 0.4388 0.2310
vn -0.9397 0.1602 0.3021
vn -0.2437 0.8989 -0.3642
vn -0.3335 0.9428 0.0017
vn -0.0077 0.9981 0.0615
vn -0.2437 0.8989 -0.3642
vn -0.8567 0.2443 0.4542
vn -0.8684 0.4388 0.2310
vn -0.2437 0.8989 -0.3642
vn -0.2437 0.8989 -0.3642
vn -0.4223 0.5778 -0.6984
vn -0.5656 0.7074 -0.4238
vn -0.9397 0.1602 0.3021
vn -0.4223 0.5778 -0.6984
vn -0.2437 0.8989 -0.3642
vn 0.3335 -0.9428 -0.0017
vn 0.6538 -0.7543 0.0605
vn 0.2330 -0.8993 0.3702
vn -0.0045 -0.9985 -0.0546
vn 0.2330 -0.8993 0.3702
vn -0.8567 0.2443 0.4542
vn 0.2330 -0.8993 0.3702
vn 0.6538 -0.7543 0.0605
vn 0.5656 -0.7074 0.4238
vn -0.8684 0.4388 0.2310
vn 0.2330 -0.8993 0.3702
vn -0.9397 0.1602 0.3021
vn 0.3335 -0.9428 -0.0017
vn 0.2330 -0.8993 0.3702
vn -0.0045 -0.9985 -0.0546
vn -0.8567 0.2443 0.4542
vn 0.2330 -0.8993 0.3702
vn -0.8684 0.4388 0.2310
vn 0.2330 -0.8993 0.3702
vn 0.5656 -0.7074 0.4238
vn 0.4101 -0.5783 0.7053
vn -0.9397 0.1602 0.3021
vn 0.2330 -0.8993 0.3702
vn 0.4101 -0.5783 0.7053
# 352 vertex normals

vt 0.0209 0.9820 0.0000
vt -0.0024 0.5119 0.0000
vt 0.6390 0.0875 0.0000
vt 0.0209 0.5328 0.0000
vt 0.5952 0.8900 0.0000
vt 0.4505 0.9820 0.0000
vt 0.4505 0.5328 0.0000
vt -0.0024 0.0289 0.0000
vt 0.4508 0.5119 0.0000
vt 0.4508 0.0289 0.0000
vt 0.0315 0.9820 0.0000
vt 0.0315 0.5328 0.0000
vt 0.4399 0.9820 0.0000
vt 0.4399 0.5328 0.0000
vt 0.6389 0.5020 0.0000
vt 0.8264 0.0875 0.0000
vt 0.8264 0.9164 0.0000
vt 0.8264 0.5020 0.0000
vt 0.2357 0.9820 0.0000
vt 0.2357 0.5328 0.0000
vt 0.2242 0.0289 0.0000
vt 0.2242 0.5119 0.0000
vt 0.2357 0.5328 0.0000
vt 0.2357 0.9820 0.0000
vt 0.0209 0.7574 0.0000
vt -0.0024 0.2704 0.0000
vt 0.4505 0.7574 0.0000
vt 0.4508 0.2704 0.0000
vt 0.0315 0.7574 0.0000
vt 0.4399 0.7574 0.0000
vt 0.2357 0.7574 0.0000
vt 0.2242 0.2704 0.0000
vt 0.2357 0.7574 0.0000
vt 0.6390 0.0875 0.0000
vt 0.8264 0.0875 0.0000
vt 0.8264 0.5020 0.0000
vt 0.6377 0.4988 0.0000
vt 0.8264 0.9164 0.0000
vt 0.5952 0.8900 0.0000
vt 0.0209 0.9820 0.0000
vt 0.2357 0.7574 0.0000
vt 0.2357 0.9820 0.0000
vt 0.4465 0.9820 0.0000
vt 0.2357 0.7574 0.0000
vt 0.4465 0.7574 0.0000
vt 0.4399 0.9820 0.0000
vt 0.2357 0.7574 0.0000
vt 0.4399 0.7574 0.0000
vt 0.2357 0.5328 0.0000
vt 0.4505 0.5328 0.0000
vt 0.2357 0.9820 0.0000
vt 0.0249 0.9820 0.0000
vt 0.2357 0.9820 0.0000
vt 0.0315 0.9820 0.0000
vt 0.0209 0.7574 0.0000
vt 0.0209 0.5328 0.0000
vt 0.4465 0.5328 0.0000
vt 0.4399 0.5328 0.0000
vt 0.4505 0.7574 0.0000
vt 0.4505 0.9820 0.0000
vt 0.0249 0.7574 0.0000
vt 0.0249 0.5328 0.0000
vt 0.0315 0.7574 0.0000
vt 0.0315 0.5328 0.0000
vt 0.2357 0.5328 0.0000
vt 0.2357 0.5328 0.0000
vt 0.6374 0.0875 0.0000
vt 0.8264 0.0875 0.0000
vt 0.8264 0.5020 0.0000
vt 0.6373 0.5021 0.0000
vt 0.8264 0.9164 0.0000
vt 0.5952 0.8900 0.0000
vt 0.6374 0.0875 0.0000
vt 0.6361 0.4989 0.0000
vt 0.8264 0.5020 0.0000
vt 0.8264 0.0875 0.0000
vt 0.8264 0.9164 0.0000
vt 0.5952 0.8900 0.0000
vt 1.0115 0.7092 0.0000
vt 1.0115 0.5020 0.0000
vt 0.9433 0.0875 0.0000
vt 1.0115 0.7092 0.0000
vt 1.0115 0.5020 0.0000
vt 0.9433 0.0875 0.0000
vt 1.0115 0.7092 0.0000
vt 1.0115 0.5020 0.0000
vt 0.9563 0.0875 0.0000
vt 1.0115 0.5020 0.0000
vt 1.0115 0.7092 0.0000
vt 0.9563 0.0875 0.0000
vt 0.4508 0.5119 0.0000
vt 0.2242 0.2704 0.0000
vt 0.4508 0.2704 0.0000
vt 0.2242 0.5119 0.0000
vt -0.0024 0.5119 0.0000
vt 0.4508 0.0289 0.0000
vt -0.0024 0.2704 0.0000
vt -0.0024 0.0289 0.0000
vt 0.2242 0.0289 0.0000
vt 0.4465 0.9820 0.0000
vt 0.4465 0.7574 0.0000
vt 0.2357 0.7574 0.0000
vt 0.2357 0.9820 0.0000
vt 0.0249 0.9820 0.0000
vt 0.4465 0.5328 0.0000
vt 0.0249 0.7574 0.0000
vt 0.0249 0.5328 0.0000
vt 0.2357 0.5328 0.0000
vt 0.0209 0.9820 0.0000
vt 0.2357 0.7574 0.0000
vt 0.2357 0.9820 0.0000
vt 0.2357 0.5328 0.0000
vt 0.4505 0.5328 0.0000
vt 0.0209 0.7574 0.0000
vt 0.0209 0.5328 0.0000
vt 0.4505 0.7574 0.0000
vt 0.4505 0.9820 0.0000
vt 0.0209 0.9820 0.0000
vt 0.2357 0.9820 0.0000
vt 0.2357 0.7574 0.0000
vt 0.2357 0.5328 0.0000
vt 0.4505 0.5328 0.0000
vt 0.0209 0.7574 0.0000
vt 0.0209 0.5328 0.0000
vt 0.4505 0.7574 0.0000
vt 0.4505 0.9820 0.0000
vt 0.4399 0.9820 0.0000
vt 0.2357 0.7574 0.0000
vt 0.4399 0.7574 0.0000
vt 0.2357 0.9820 0.0000
vt 0.0315 0.9820 0.0000
vt 0.4399 0.5328 0.0000
vt 0.0315 0.7574 0.0000
vt 0.0315 0.5328 0.0000
vt 0.2357 0.5328 0.0000
vt 0.4399 0.9820 0.0000
vt 0.4399 0.7574 0.0000
vt 0.2357 0.7574 0.0000
vt 0.2357 0.9820 0.0000
vt 0.0315 0.9820 0.0000
vt 0.4399 0.5328 0.0000
vt 0.0315 0.7574 0.0000
vt 0.0315 0.5328 0.0000
vt 0.2357 0.5328 0.0000
# 144 texture coords

g Plane002
s 1
f 1/1/1 24/31/2 14/19/3 
f 11/16/4 13/18/5 10/15/6 3/3/7 
f 72/9/8 25/32/9 22/28/10 
f 8/13/11 26/33/12 23/30/13 
f 75/81/14 74/80/15 13/18/16 11/16/17 
f 5/5/18 10/15/19 13/18/20 12/17/21 
f 15/20/22 7/7/23 24/31/24 
f 16/22/25 2/2/26 25/32/27 
f 18/24/28 47/11/29 26/33/30 
f 19/25/31 4/4/32 24/31/33 
f 25/32/34 50/10/35 22/28/36 
f 26/33/37 9/14/38 23/30/39 
f 21/27/40 6/6/41 24/31/42 
f 20/26/43 55/8/44 25/32/45 
f 56/29/46 57/12/47 26/33/48 
f 1/1/49 19/25/50 24/31/51 
f 72/9/52 16/22/53 25/32/54 
f 8/13/55 18/24/56 26/33/57 
f 7/7/58 21/27/59 24/31/60 
f 2/2/61 20/26/62 25/32/63 
f 47/11/64 56/29/65 26/33/66 
f 4/4/67 15/20/68 24/31/69 
f 25/32/70 58/21/71 50/10/72 
f 26/33/73 17/23/74 9/14/75 
f 6/6/76 14/19/77 24/31/78 
f 55/8/79 58/21/80 25/32/81 
f 57/12/82 17/23/83 26/33/84 
f 28/35/85 27/34/86 30/37/87 29/36/88 
f 29/36/89 77/83/90 78/84/91 28/35/92 
f 32/39/93 31/38/94 29/36/95 30/37/96 
f 33/40/97 35/42/98 34/41/99 
f 36/43/100 38/45/101 37/44/102 
f 39/46/103 41/48/104 40/47/105 
f 42/49/106 34/41/107 43/50/108 
f 44/51/109 37/44/110 45/52/111 
f 46/53/112 40/47/113 47/54/114 
f 48/55/115 34/41/116 49/56/117 
f 37/44/118 38/45/119 50/57/120 
f 40/47/121 41/48/122 51/58/123 
f 52/59/124 34/41/125 53/60/126 
f 54/61/127 37/44/128 55/62/129 
f 56/63/130 40/47/131 57/64/132 
f 33/40/133 34/41/134 48/55/135 
f 36/43/136 37/44/137 44/51/138 
f 39/46/139 40/47/140 46/53/141 
f 43/50/142 34/41/143 52/59/144 
f 45/52/145 37/44/146 54/61/147 
f 47/54/148 40/47/149 56/63/150 
f 49/56/151 34/41/152 42/49/153 
f 37/44/154 50/57/155 58/65/156 
f 40/47/157 51/58/158 59/66/159 
f 53/60/160 34/41/161 35/42/162 
f 55/62/163 37/44/164 58/65/165 
f 57/64/166 40/47/167 59/66/168 
f 61/68/169 62/69/170 63/70/171 60/67/172 
f 81/87/173 80/86/174 62/69/175 61/68/176 
f 65/72/177 63/70/178 62/69/179 64/71/180 
f 69/76/181 66/73/182 67/74/183 68/75/184 
f 68/75/185 82/88/186 84/90/187 69/76/188 
f 71/78/189 70/77/190 68/75/191 67/74/192 
f 13/18/193 74/80/194 73/79/195 12/17/196 
f 29/36/197 31/38/198 76/82/199 77/83/200 
f 62/69/201 80/86/202 79/85/203 64/71/204 
f 70/77/205 83/89/206 82/88/207 68/75/208 
f 85/91/209 86/92/210 87/93/211 
f 88/94/212 89/95/213 86/92/214 
f 86/92/215 90/96/216 87/93/217 
f 91/97/218 92/98/219 86/92/220 
f 85/91/221 88/94/222 86/92/223 
f 89/95/224 91/97/225 86/92/226 
f 86/92/227 93/99/228 90/96/229 
f 92/98/230 93/99/231 86/92/232 
f 94/100/233 95/101/234 96/102/235 
f 97/103/236 96/102/237 98/104/238 
f 96/102/239 95/101/240 90/105/241 
f 99/106/242 96/102/243 92/107/244 
f 94/100/245 96/102/246 97/103/247 
f 98/104/248 96/102/249 99/106/250 
f 96/102/251 90/105/252 93/108/253 
f 92/107/254 96/102/255 93/108/256 
f 100/109/257 101/110/258 102/111/259 
f 103/112/260 104/113/261 101/110/262 
f 105/114/263 106/115/264 101/110/265 
f 107/116/266 108/117/267 101/110/268 
f 100/109/269 105/114/270 101/110/271 
f 104/113/272 107/116/273 101/110/274 
f 106/115/275 103/112/276 101/110/277 
f 108/117/278 102/111/279 101/110/280 
f 109/118/281 110/119/282 111/120/283 
f 112/121/284 111/120/285 113/122/286 
f 114/123/287 111/120/288 115/124/289 
f 116/125/290 111/120/291 117/126/292 
f 109/118/293 111/120/294 114/123/295 
f 113/122/296 111/120/297 116/125/298 
f 115/124/299 111/120/300 112/121/301 
f 117/126/302 111/120/303 110/119/304 
f 118/127/305 119/128/306 120/129/307 
f 121/130/308 122/131/309 119/128/310 
f 119/128/311 123/132/312 120/129/313 
f 124/133/314 125/134/315 119/128/316 
f 118/127/317 121/130/318 119/128/319 
f 122/131/320 124/133/321 119/128/322 
f 119/128/323 126/135/324 123/132/325 
f 125/134/326 126/135/327 119/128/328 
f 127/136/329 128/137/330 129/138/331 
f 130/139/332 129/138/333 122/140/334 
f 129/138/335 128/137/336 131/141/337 
f 124/142/338 129/138/339 125/143/340 
f 127/136/341 129/138/342 130/139/343 
f 122/140/344 129/138/345 124/142/346 
f 129/138/347 131/141/348 132/144/349 
f 125/143/350 129/138/351 132/144/352 
# 16 polygons - 96 triangles

