# 3ds Max Wavefront OBJ Exporter v0.97b - (c)2007 guruware
# File Created: 30.01.2016 16:43:46

#
# object raggitfoot
#

v  0.3152 0.2015 0.2063
v  -0.2585 0.3580 0.1788
v  0.2029 0.0229 -0.4352
v  -0.1329 0.1022 -0.4726
v  0.1714 -0.1605 -0.4346
v  -0.1863 -0.0656 -0.4740
v  0.0502 0.0387 -0.5173
v  0.1816 0.2505 0.2084
v  -0.1242 0.3405 0.2076
v  -0.1919 0.0147 0.1519
v  0.0184 0.3069 0.2190
v  0.0370 0.3024 0.2210
v  -0.0497 -0.0365 0.1751
v  0.1018 -0.0568 0.1840
v  0.1601 0.2564 0.2058
v  -0.1040 0.3358 0.2097
v  -0.0037 -0.1857 -0.5203
v  0.1314 0.2168 0.4278
v  0.2645 0.2011 0.4270
v  0.3004 0.3143 0.3110
v  0.1789 0.3466 0.2946
v  -0.1022 0.3800 0.6403
v  -0.0179 0.3561 0.6528
v  0.0315 0.4929 0.5128
v  -0.0577 0.5142 0.5039
v  0.1456 0.4221 0.4350
v  0.0462 0.4468 0.4230
v  -0.0036 0.3101 0.5630
v  0.0948 0.2901 0.5705
v  -0.0806 0.4891 0.4355
v  -0.1851 0.5126 0.4274
v  -0.2268 0.3946 0.5478
v  -0.1250 0.3566 0.5704
v  0.3044 0.0825 -0.0560
v  -0.2516 0.2180 -0.1166
v  -0.3065 0.0332 -0.0305
v  0.2495 -0.1022 0.0302
v  -0.0503 -0.1080 0.0341
v  0.0960 -0.1240 0.0410
v  0.1661 0.1219 -0.0737
v  -0.0063 0.1653 -0.0932
v  -0.1858 -0.0554 0.0103
v  0.1205 0.0856 0.4033
v  0.2701 0.0456 0.3246
v  -0.1643 0.1691 0.4137
v  -0.0486 0.1316 0.4304
v  -0.0303 0.1059 0.3867
v  0.0942 0.0851 0.3959
v  -0.3102 0.2234 0.3480
v  -0.1853 0.1616 0.3758
v  0.2811 0.2762 0.4179
v  0.1539 0.3002 0.4101
v  0.0055 0.4429 0.6317
v  -0.0812 0.4655 0.6210
v  0.0200 0.3968 0.5419
v  0.1189 0.3746 0.5516
v  -0.2073 0.4721 0.5364
v  -0.1041 0.4412 0.5518
v  0.3142 0.1907 0.1827
v  -0.3267 0.1104 0.1442
v  0.1704 0.2417 0.1819
v  -0.1044 0.3226 0.1815
v  -0.2579 0.3454 0.1523
v  0.2635 -0.0375 0.1998
v  0.0247 0.2921 0.1919
v  0.2423 0.2347 0.1790
v  0.2484 0.2445 0.2041
v  0.2396 0.3490 0.2995
v  -0.0131 0.5221 0.5051
v  0.0959 0.4529 0.4257
v  -0.1329 0.5194 0.4281
v  -0.0399 0.3259 0.1834
v  0.0975 0.2854 0.1836
v  -0.1812 0.3525 0.1636
v  -0.0428 0.3399 0.2111
v  0.0985 0.2979 0.2101
v  -0.1914 0.3678 0.1899
# 77 vertices

vn 0.9378 0.2972 -0.1794
vn 0.9049 0.3582 -0.2300
vn 0.2872 0.8560 -0.4299
vn 0.2903 0.7703 -0.5678
vn -0.5185 0.8291 -0.2093
vn -0.5818 0.6056 0.5429
vn 0.5955 0.3758 0.7101
vn 0.1998 0.9705 -0.1348
vn 0.5955 0.3758 0.7101
vn 0.8064 0.5892 -0.0507
vn 0.1998 0.9705 -0.1348
vn -0.5949 0.7179 -0.3616
vn -0.9396 -0.3093 0.1466
vn -0.6408 0.7049 -0.3042
vn -0.7506 -0.3192 -0.5785
vn -0.3543 0.6618 -0.6607
vn 0.2340 0.4951 -0.8367
vn -0.0826 -0.7257 -0.6831
vn 0.6094 -0.6640 -0.4333
vn 0.7135 0.4238 -0.5579
vn 0.8970 0.3664 -0.2474
vn 0.6370 -0.7597 0.1309
vn 0.2335 0.9720 -0.0255
vn -0.5475 0.8321 -0.0884
vn -0.5168 0.6366 0.5724
vn 0.8610 0.5023 0.0801
vn 0.8610 0.5023 0.0801
vn -0.5168 0.6366 0.5724
vn 0.6504 0.3472 0.6755
vn -0.0826 -0.7257 -0.6831
vn 0.2340 0.4951 -0.8367
vn 0.7135 0.4238 -0.5579
vn 0.6094 -0.6640 -0.4333
vn -0.5385 0.8381 -0.0877
vn -0.5500 0.6390 0.5377
vn 0.6177 0.3610 0.6987
vn 0.1854 0.9818 -0.0405
vn 0.6177 0.3610 0.6987
vn 0.8457 0.5318 0.0446
vn 0.1854 0.9818 -0.0405
vn 0.2436 0.9688 -0.0457
vn -0.4764 0.8746 -0.0896
vn -0.4788 0.6394 0.6015
vn 0.8784 0.4773 0.0250
vn 0.8784 0.4773 0.0250
vn -0.4788 0.6394 0.6015
vn 0.6707 0.3128 0.6725
vn 0.2340 0.4951 -0.8367
vn 0.2491 0.9080 -0.3367
vn 0.2784 0.9029 -0.3275
vn -0.0826 -0.7257 -0.6831
vn 0.0178 -0.9605 0.2776
vn -0.2559 -0.9247 0.2820
vn -0.7506 -0.3192 -0.5785
vn -0.0826 -0.7257 -0.6831
vn -0.5079 -0.8336 0.2174
vn -0.9245 -0.3782 -0.0475
vn -0.4255 0.8730 -0.2385
vn 0.2573 0.8763 -0.4072
vn 0.7731 0.6340 0.0190
vn 0.7885 0.6123 -0.0580
vn -0.4309 0.8924 -0.1340
vn 0.1766 0.8813 -0.4383
vn -0.4276 0.8873 -0.1726
vn 0.7800 0.6253 -0.0245
vn -0.2527 -0.8321 0.4937
vn -0.4255 0.8730 -0.2385
vn 0.7731 0.6340 0.0190
vn -0.0265 -0.8680 0.4958
vn -0.4309 0.8924 -0.1340
vn 0.7885 0.6123 -0.0580
vn -0.4716 -0.7714 0.4273
vn 0.6457 -0.5774 0.4996
vn -0.6466 -0.3891 0.6561
vn -0.0265 -0.8680 0.4958
vn 0.6262 -0.7044 0.3343
vn 0.6262 -0.7044 0.3343
vn 0.9378 0.2972 -0.1794
vn 0.6457 -0.5774 0.4996
vn -0.4255 0.8730 -0.2385
vn -0.0265 -0.8680 0.4958
vn -0.6466 -0.3891 0.6561
vn -0.8607 -0.3225 0.3939
vn -0.4716 -0.7714 0.4273
vn -0.2527 -0.8321 0.4937
vn 0.4392 -0.7122 0.5476
vn -0.2527 -0.8321 0.4937
vn 0.7800 0.6253 -0.0245
vn 0.4392 -0.7122 0.5476
vn -0.4309 0.8924 -0.1340
vn -0.4716 -0.7714 0.4273
vn -0.8607 -0.3225 0.3939
vn -0.4276 0.8873 -0.1726
vn -0.2527 -0.8321 0.4937
vn -0.8123 -0.3886 0.4349
vn 0.5118 -0.6390 0.5742
vn -0.8123 -0.3886 0.4349
vn -0.2527 -0.8321 0.4937
vn -0.0265 -0.8680 0.4958
vn -0.0265 -0.8680 0.4958
vn 0.7731 0.6340 0.0190
vn 0.5118 -0.6390 0.5742
vn -0.6408 0.7049 -0.3042
vn -0.9396 -0.3093 0.1466
vn -0.9001 -0.2298 0.3701
vn -0.9001 -0.2298 0.3701
vn -0.9396 -0.3093 0.1466
vn -0.4716 -0.7714 0.4273
vn 0.3543 -0.7547 0.5521
vn -0.4716 -0.7714 0.4273
vn 0.7885 0.6123 -0.0580
vn 0.3543 -0.7547 0.5521
vn 0.2784 0.9029 -0.3275
vn 0.8970 0.3664 -0.2474
vn 0.7135 0.4238 -0.5579
vn 0.2340 0.4951 -0.8367
vn 0.6094 -0.6640 -0.4333
vn 0.6370 -0.7597 0.1309
vn 0.0178 -0.9605 0.2776
vn -0.0826 -0.7257 -0.6831
vn -0.9245 -0.3782 -0.0475
vn -0.5578 0.7157 -0.4203
vn -0.3543 0.6618 -0.6607
vn -0.7506 -0.3192 -0.5785
vn 0.6262 -0.7044 0.3343
vn 0.6370 -0.7597 0.1309
vn 0.8970 0.3664 -0.2474
vn 0.9049 0.3582 -0.2300
vn 0.2491 0.9080 -0.3367
vn 0.1766 0.8813 -0.4383
vn 0.2272 0.8677 -0.4421
vn 0.2602 0.8833 -0.3900
vn -0.5079 -0.8336 0.2174
vn -0.0826 -0.7257 -0.6831
vn -0.2559 -0.9247 0.2820
vn 0.2491 0.9080 -0.3367
vn 0.2602 0.8833 -0.3900
vn 0.2736 0.8600 -0.4306
vn 0.2573 0.8763 -0.4072
vn 0.2491 0.9080 -0.3367
vn 0.2573 0.8763 -0.4072
vn 0.2784 0.9029 -0.3275
vn -0.2527 -0.8321 0.4937
vn -0.2559 -0.9247 0.2820
vn 0.0178 -0.9605 0.2776
vn -0.0265 -0.8680 0.4958
vn -0.5578 0.7157 -0.4203
vn -0.5949 0.7179 -0.3616
vn 0.2461 0.8650 -0.4373
vn 0.1766 0.8813 -0.4383
vn -0.5578 0.7157 -0.4203
vn 0.1766 0.8813 -0.4383
vn 0.2491 0.9080 -0.3367
vn -0.9245 -0.3782 -0.0475
vn -0.5079 -0.8336 0.2174
vn -0.4716 -0.7714 0.4273
vn -0.9396 -0.3093 0.1466
vn -0.6466 -0.3891 0.6561
vn 0.6457 -0.5774 0.4996
vn 0.5248 -0.1678 0.8345
vn -0.7985 0.1391 0.5857
vn 0.9378 0.2972 -0.1794
vn 0.5955 0.3758 0.7101
vn 0.6457 -0.5774 0.4996
vn -0.4255 0.8730 -0.2385
vn -0.5185 0.8291 -0.2093
vn 0.1998 0.9705 -0.1348
vn 0.2903 0.7703 -0.5678
vn -0.6466 -0.3891 0.6561
vn -0.5818 0.6056 0.5429
vn -0.4255 0.8730 -0.2385
vn -0.6834 -0.0452 0.7286
vn -0.8607 -0.3225 0.3939
vn 0.4392 -0.7122 0.5476
vn 0.4442 -0.3388 0.8294
vn 0.7800 0.6253 -0.0245
vn 0.6504 0.3472 0.6755
vn 0.4392 -0.7122 0.5476
vn -0.5475 0.8321 -0.0884
vn 0.2335 0.9720 -0.0255
vn 0.2099 0.8556 -0.4732
vn -0.4309 0.8924 -0.1340
vn -0.8607 -0.3225 0.3939
vn -0.5168 0.6366 0.5724
vn -0.4309 0.8924 -0.1340
vn -0.4276 0.8873 -0.1726
vn -0.5385 0.8381 -0.0877
vn 0.1854 0.9818 -0.0405
vn 0.2421 0.8353 -0.4936
vn -0.8123 -0.3886 0.4349
vn -0.5500 0.6390 0.5377
vn -0.4276 0.8873 -0.1726
vn -0.8123 -0.3886 0.4349
vn 0.5118 -0.6390 0.5742
vn 0.4321 -0.2876 0.8548
vn -0.7145 -0.0303 0.6989
vn 0.7731 0.6340 0.0190
vn 0.6177 0.3610 0.6987
vn 0.5118 -0.6390 0.5742
vn -0.4764 0.8746 -0.0896
vn 0.2436 0.9688 -0.0457
vn 0.1688 0.8524 -0.4949
vn -0.6408 0.7049 -0.3042
vn -0.9001 -0.2298 0.3701
vn -0.4788 0.6394 0.6015
vn -0.6408 0.7049 -0.3042
vn -0.6682 -0.0313 0.7433
vn -0.9001 -0.2298 0.3701
vn 0.3543 -0.7547 0.5521
vn 0.4733 -0.3712 0.7989
vn 0.7885 0.6123 -0.0580
vn 0.6707 0.3128 0.6725
vn 0.3543 -0.7547 0.5521
vn 0.5248 -0.1678 0.8345
vn 0.5955 0.3758 0.7101
vn -0.5818 0.6056 0.5429
vn -0.7985 0.1391 0.5857
vn 0.6504 0.3472 0.6755
vn -0.5168 0.6366 0.5724
vn -0.6834 -0.0452 0.7286
vn 0.4442 -0.3388 0.8294
vn 0.4321 -0.2876 0.8548
vn 0.6177 0.3610 0.6987
vn -0.5500 0.6390 0.5377
vn -0.7145 -0.0303 0.6989
vn 0.6707 0.3128 0.6725
vn -0.4788 0.6394 0.6015
vn -0.6682 -0.0313 0.7433
vn 0.4733 -0.3712 0.7989
vn 0.9378 0.2972 -0.1794
vn 0.8064 0.5892 -0.0507
vn 0.5955 0.3758 0.7101
vn 0.5955 0.3758 0.7101
vn 0.5248 -0.1678 0.8345
vn 0.6457 -0.5774 0.4996
vn -0.5818 0.6056 0.5429
vn -0.5185 0.8291 -0.2093
vn -0.4255 0.8730 -0.2385
vn -0.6466 -0.3891 0.6561
vn -0.7985 0.1391 0.5857
vn -0.5818 0.6056 0.5429
vn 0.7800 0.6253 -0.0245
vn 0.8610 0.5023 0.0801
vn 0.6504 0.3472 0.6755
vn 0.6504 0.3472 0.6755
vn 0.4442 -0.3388 0.8294
vn 0.4392 -0.7122 0.5476
vn -0.5168 0.6366 0.5724
vn -0.5475 0.8321 -0.0884
vn -0.4309 0.8924 -0.1340
vn -0.8607 -0.3225 0.3939
vn -0.6834 -0.0452 0.7286
vn -0.5168 0.6366 0.5724
vn -0.5500 0.6390 0.5377
vn -0.5385 0.8381 -0.0877
vn -0.4276 0.8873 -0.1726
vn -0.8123 -0.3886 0.4349
vn -0.7145 -0.0303 0.6989
vn -0.5500 0.6390 0.5377
vn 0.7731 0.6340 0.0190
vn 0.8457 0.5318 0.0446
vn 0.6177 0.3610 0.6987
vn 0.6177 0.3610 0.6987
vn 0.4321 -0.2876 0.8548
vn 0.5118 -0.6390 0.5742
vn -0.4788 0.6394 0.6015
vn -0.4764 0.8746 -0.0896
vn -0.6408 0.7049 -0.3042
vn -0.9001 -0.2298 0.3701
vn -0.6682 -0.0313 0.7433
vn -0.4788 0.6394 0.6015
vn 0.7885 0.6123 -0.0580
vn 0.8784 0.4773 0.0250
vn 0.6707 0.3128 0.6725
vn 0.6707 0.3128 0.6725
vn 0.4733 -0.3712 0.7989
vn 0.3543 -0.7547 0.5521
vn -0.3543 0.6618 -0.6607
vn -0.5578 0.7157 -0.4203
vn 0.2491 0.9080 -0.3367
vn 0.2340 0.4951 -0.8367
vn 0.9049 0.3582 -0.2300
vn 0.8970 0.3664 -0.2474
vn 0.2784 0.9029 -0.3275
vn 0.2872 0.8560 -0.4299
vn 0.2784 0.9029 -0.3275
vn 0.2573 0.8763 -0.4072
vn 0.2872 0.8560 -0.4299
vn 0.6370 -0.7597 0.1309
vn 0.6262 -0.7044 0.3343
vn -0.0265 -0.8680 0.4958
vn 0.0178 -0.9605 0.2776
vn -0.9396 -0.3093 0.1466
vn -0.5949 0.7179 -0.3616
vn -0.5578 0.7157 -0.4203
vn -0.9245 -0.3782 -0.0475
vn -0.2527 -0.8321 0.4937
vn -0.4716 -0.7714 0.4273
vn -0.5079 -0.8336 0.2174
vn -0.2559 -0.9247 0.2820
vn 0.9049 0.3582 -0.2300
vn 0.9378 0.2972 -0.1794
vn 0.6262 -0.7044 0.3343
vn 0.7800 0.6253 -0.0245
vn 0.2602 0.8833 -0.3900
vn 0.2272 0.8677 -0.4421
vn 0.2099 0.8556 -0.4732
vn -0.4276 0.8873 -0.1726
vn 0.2421 0.8353 -0.4936
vn 0.2736 0.8600 -0.4306
vn 0.2602 0.8833 -0.3900
vn -0.5949 0.7179 -0.3616
vn -0.6408 0.7049 -0.3042
vn 0.1688 0.8524 -0.4949
vn 0.2461 0.8650 -0.4373
vn 0.2602 0.8833 -0.3900
vn 0.7800 0.6253 -0.0245
vn -0.4276 0.8873 -0.1726
vn 0.2872 0.8560 -0.4299
vn 0.2573 0.8763 -0.4072
vn -0.4255 0.8730 -0.2385
vn 0.2903 0.7703 -0.5678
vn 0.8064 0.5892 -0.0507
vn 0.9378 0.2972 -0.1794
vn 0.2903 0.7703 -0.5678
vn 0.1998 0.9705 -0.1348
vn 0.8610 0.5023 0.0801
vn 0.7800 0.6253 -0.0245
vn 0.2099 0.8556 -0.4732
vn 0.2335 0.9720 -0.0255
vn 0.8457 0.5318 0.0446
vn 0.7731 0.6340 0.0190
vn 0.2421 0.8353 -0.4936
vn 0.1854 0.9818 -0.0405
vn 0.2436 0.9688 -0.0457
vn 0.8784 0.4773 0.0250
vn 0.7885 0.6123 -0.0580
vn 0.1688 0.8524 -0.4949
vn 0.1766 0.8813 -0.4383
vn -0.4309 0.8924 -0.1340
vn 0.2099 0.8556 -0.4732
vn 0.2272 0.8677 -0.4421
vn 0.7731 0.6340 0.0190
vn 0.2573 0.8763 -0.4072
vn 0.2736 0.8600 -0.4306
vn 0.2421 0.8353 -0.4936
vn 0.7885 0.6123 -0.0580
vn 0.1766 0.8813 -0.4383
vn 0.2461 0.8650 -0.4373
vn 0.1688 0.8524 -0.4949
# 350 vertex normals

vt 0.3143 0.1081 0.0000
vt 0.3280 0.1087 0.0000
vt 0.3190 0.1840 0.0000
vt 0.3057 0.1785 0.0000
vt 0.3278 0.8276 0.0000
vt 0.2433 0.1898 0.0000
vt 0.1810 0.1919 0.0000
vt 0.1833 0.1282 0.0000
vt 0.2399 0.1276 0.0000
vt 0.3149 0.4021 0.0000
vt 0.3722 0.5080 0.0000
vt 0.3010 0.4027 0.0000
vt 0.9145 0.1063 0.0000
vt 0.8010 0.1057 0.0000
vt 0.8382 0.0024 0.0000
vt 0.9246 0.0090 0.0000
vt 0.4563 0.1149 0.0000
vt 0.4641 0.0124 0.0000
vt 0.6834 0.0901 0.0000
vt 0.6413 0.1712 0.0000
vt 0.1150 0.2638 0.0000
vt 0.1152 0.3101 0.0000
vt 0.0503 0.3107 0.0000
vt 0.0487 0.2652 0.0000
vt 0.9246 0.1913 0.0000
vt 0.8332 0.1969 0.0000
vt 0.1667 0.2551 0.0000
vt 0.1016 0.2555 0.0000
vt 0.1025 0.2051 0.0000
vt 0.1662 0.2041 0.0000
vt 0.1531 0.3263 0.0000
vt 0.1547 0.3793 0.0000
vt 0.0963 0.3832 0.0000
vt 0.0901 0.3299 0.0000
vt 0.6763 0.2495 0.0000
vt 0.4585 0.2722 0.0000
vt 0.4574 0.1848 0.0000
vt 0.6677 0.6521 0.0000
vt 0.4045 0.7352 0.0000
vt 0.3981 0.6656 0.0000
vt 0.3963 0.5957 0.0000
vt 0.3995 0.5207 0.0000
vt 0.6255 0.5526 0.0000
vt 0.3283 0.7462 0.0000
vt 0.3055 0.1893 0.0000
vt 0.2887 0.3357 0.0000
vt 0.2886 0.3252 0.0000
vt 0.3043 0.3250 0.0000
vt 0.3192 0.5922 0.0000
vt 0.8236 0.3595 0.0000
vt 0.8289 0.3517 0.0000
vt 0.9686 0.4524 0.0000
vt 0.8485 0.3494 0.0000
vt 0.8412 0.3411 0.0000
vt 0.9661 0.2478 0.0000
vt 0.8604 0.5189 0.0000
vt 0.8667 0.5108 0.0000
vt 0.9952 0.6137 0.0000
vt 0.2544 0.8414 0.0000
vt 0.2007 0.7737 0.0000
vt 0.3014 0.0090 0.0000
vt 0.6866 0.1548 0.0000
vt 0.7090 0.0020 0.0000
vt 0.7988 0.0909 0.0000
vt 0.1651 0.6659 0.0000
vt 0.1636 0.6031 0.0000
vt 0.9947 0.6863 0.0000
vt 0.8592 0.7925 0.0000
vt 0.8505 0.6538 0.0000
vt 0.8489 0.6513 0.0000
vt 0.8467 0.4881 0.0000
vt 0.3213 0.6697 0.0000
vt 0.2001 0.7507 0.0000
vt 0.1941 0.6874 0.0000
vt 0.8447 0.2111 0.0000
vt 0.2570 0.5025 0.0000
vt 0.1863 0.5814 0.0000
vt 0.1883 0.5107 0.0000
vt 0.9667 0.8510 0.0000
vt 0.8314 0.9431 0.0000
vt 0.8415 0.8190 0.0000
vt 0.6369 0.7422 0.0000
vt 0.4164 0.8093 0.0000
vt 0.6445 0.3421 0.0000
vt 0.6845 0.4190 0.0000
vt 0.4670 0.4982 0.0000
vt 0.4599 0.3952 0.0000
vt 0.3747 0.0026 0.0000
vt 0.3049 0.2589 0.0000
vt 0.3045 0.5112 0.0000
vt 0.1634 0.8584 0.0000
vt 0.1382 0.7967 0.0000
vt 0.2040 0.0842 0.0000
vt 0.7809 0.1963 0.0000
vt 0.0023 0.6650 0.0000
vt 0.0025 0.6196 0.0000
vt 0.6703 0.6923 0.0000
vt 0.2895 0.2622 0.0000
vt 0.6703 0.6135 0.0000
vt 0.2896 0.2528 0.0000
vt 0.6868 0.4513 0.0000
vt 0.0651 0.7533 0.0000
vt 0.0590 0.7031 0.0000
vt 0.6866 0.2471 0.0000
vt 0.1161 0.4232 0.0000
vt 0.0460 0.5807 0.0000
vt 0.0518 0.5258 0.0000
vt 0.6780 0.8553 0.0000
vt 0.1376 0.1931 0.0000
vt 0.1453 0.1277 0.0000
vt 0.0047 0.3106 0.0000
vt 0.0020 0.2660 0.0000
vt 0.0559 0.2556 0.0000
vt 0.0580 0.2058 0.0000
vt 0.0566 0.3853 0.0000
vt 0.0461 0.3315 0.0000
vt 0.2183 0.0487 0.0000
vt 0.7197 0.2089 0.0000
vt 0.7988 0.1568 0.0000
vt 0.6927 0.7531 0.0000
vt 0.6944 0.6538 0.0000
vt 0.6934 0.5545 0.0000
vt 0.6936 0.6513 0.0000
vt 0.7051 0.3892 0.0000
vt 0.7134 0.4881 0.0000
vt 0.7061 0.3074 0.0000
vt 0.7123 0.2111 0.0000
vt 0.1276 0.4612 0.0000
vt 0.6989 0.9147 0.0000
vt 0.7027 0.8190 0.0000
vt 0.2895 0.2526 0.0000
vt 0.3235 0.1463 0.0000
vt 0.3100 0.1433 0.0000
vt 0.2416 0.1587 0.0000
vt 0.1151 0.2870 0.0000
vt 0.1664 0.2296 0.0000
vt 0.1539 0.3528 0.0000
vt 0.3046 0.2919 0.0000
vt 0.3119 0.2214 0.0000
vt 0.3096 0.3636 0.0000
vt 0.2891 0.2937 0.0000
vt 0.2975 0.2211 0.0000
vt 0.2948 0.3692 0.0000
# 143 texture coords

g raggitfoot
s 1
f 1/1/1 59/2/2 66/132/3 67/133/4 
f 21/6/5 52/7/6 51/8/7 68/134/8 
f 51/8/9 20/9/10 68/134/11 
f 63/10/12 60/11/13 2/12/14 
f 6/15/15 4/16/16 7/13/17 17/14/18 
f 5/19/19 3/20/20 34/17/21 37/18/22 
f 69/135/23 25/22/24 54/23/25 24/21/26 
f 24/21/27 54/23/28 53/24/29 
f 17/14/30 7/13/31 3/25/32 5/26/33 
f 27/27/34 55/28/35 56/29/36 70/136/37 
f 56/29/38 26/30/39 70/136/40 
f 71/137/41 31/32/42 57/33/43 30/31/44 
f 30/31/45 57/33/46 58/34/47 
f 7/35/48 41/36/49 40/37/50 
f 17/38/51 39/39/52 38/40/53 
f 6/43/54 17/38/55 42/41/56 36/42/57 
f 8/4/58 61/3/59 15/45/60 
f 9/46/61 16/47/62 62/48/63 
f 12/50/64 11/51/65 13/52/66 
f 8/53/67 15/54/68 14/55/69 
f 16/56/70 9/57/71 10/58/72 
f 44/59/73 43/60/74 14/44/75 64/5/76 
f 64/88/77 1/1/78 44/61/79 
f 8/62/80 14/63/81 43/64/82 
f 45/66/83 10/49/84 13/72/85 46/65/86 
f 13/67/87 11/68/88 46/69/89 
f 16/56/90 10/58/91 45/70/92 
f 12/50/93 13/52/94 47/71/95 
f 48/73/96 47/74/97 13/72/98 14/44/99 
f 14/55/100 15/54/101 48/75/102 
f 2/12/103 60/11/104 49/76/105 
f 49/78/106 60/90/107 10/49/108 50/77/109 
f 10/79/110 9/80/111 50/81/112 
f 40/37/113 34/17/114 3/20/115 7/35/116 
f 5/82/117 37/83/118 39/39/119 17/38/120 
f 36/86/121 35/87/122 4/84/123 6/85/124 
f 64/88/125 37/18/126 34/17/127 59/2/128 
f 41/36/129 62/48/130 72/138/131 65/89/132 
f 42/41/133 17/38/134 38/40/135 
f 41/36/136 65/89/137 73/139/138 61/3/139 
f 41/36/140 61/3/141 40/37/142 
f 13/72/143 38/40/144 39/39/145 14/44/146 
f 35/87/147 63/10/148 74/140/149 62/48/150 
f 35/87/151 62/48/152 41/36/153 
f 36/42/154 42/41/155 10/49/156 60/90/157 
f 43/60/158 44/59/159 19/91/160 18/92/161 
f 1/1/162 51/93/163 44/61/164 
f 8/4/165 21/6/166 68/134/167 67/133/168 
f 43/64/169 52/94/170 8/62/171 
f 22/96/172 45/66/173 46/65/174 23/95/175 
f 11/68/176 53/97/177 46/69/178 
f 25/22/179 69/135/180 75/141/181 16/47/182 
f 45/70/183 54/99/184 16/56/185 
f 12/100/186 27/27/187 70/136/188 76/142/189 
f 47/71/190 55/101/191 12/50/192 
f 47/74/193 48/73/194 29/102/195 28/103/196 
f 15/54/197 56/104/198 48/75/199 
f 31/32/200 71/137/201 77/143/202 2/12/203 
f 49/76/204 57/105/205 2/12/206 
f 32/107/207 49/78/208 50/77/209 33/106/210 
f 9/80/211 58/108/212 50/81/213 
f 19/110/214 51/8/215 52/7/216 18/109/217 
f 53/24/218 54/23/219 22/111/220 23/112/221 
f 29/114/222 56/29/223 55/28/224 28/113/225 
f 58/34/226 57/33/227 32/115/228 33/116/229 
f 1/1/230 20/9/231 51/93/232 
f 51/93/233 19/117/234 44/61/235 
f 52/94/236 21/118/237 8/62/238 
f 43/64/239 18/119/240 52/94/241 
f 11/68/242 24/120/243 53/97/244 
f 53/97/245 23/121/246 46/69/247 
f 54/99/248 25/122/249 16/56/250 
f 45/70/251 22/123/252 54/99/253 
f 55/101/254 27/124/255 12/50/256 
f 47/71/257 28/125/258 55/101/259 
f 15/54/260 26/126/261 56/104/262 
f 56/104/263 29/127/264 48/75/265 
f 57/105/266 31/32/267 2/12/268 
f 49/76/269 32/128/270 57/105/271 
f 9/80/272 30/129/273 58/108/274 
f 58/108/275 33/130/276 50/81/277 
f 4/84/278 35/87/279 41/36/280 7/35/281 
f 59/2/282 34/17/283 40/37/284 66/132/285 
f 40/37/286 61/3/287 66/132/288 
f 37/83/289 64/5/290 14/44/291 39/39/292 
f 60/11/293 63/10/294 35/87/295 36/86/296 
f 13/72/297 10/49/298 42/41/299 38/40/300 
f 59/2/301 1/1/302 64/88/303 
f 11/98/304 65/89/305 72/138/306 75/141/307 
f 12/100/308 76/142/309 73/139/310 65/89/311 
f 63/10/312 2/12/313 77/143/314 74/140/315 
f 65/89/316 11/98/317 12/131/318 
f 66/132/319 61/3/320 8/4/321 67/133/322 
f 20/9/323 1/1/324 67/133/325 68/134/326 
f 24/21/327 11/98/328 75/141/329 69/135/330 
f 26/30/331 15/45/332 76/142/333 70/136/334 
f 71/137/335 30/31/336 9/46/337 77/143/338 
f 62/48/339 16/47/340 75/141/341 72/138/342 
f 15/45/343 61/3/344 73/139/345 76/142/346 
f 9/46/347 62/48/348 74/140/349 77/143/350 
# 50 polygons - 50 triangles

